<?xml version="1.0" encoding="UTF-8"?>
<!DOCTYPE svg PUBLIC "-//W3C//DTD SVG 1.1//EN" "http://www.w3.org/Graphics/SVG/1.1/DTD/svg11.dtd">
<!-- Creator: CorelDRAW -->
<svg xmlns="http://www.w3.org/2000/svg" xml:space="preserve" width="164.473mm" height="173.905mm" version="1.1" style="shape-rendering:geometricPrecision; text-rendering:geometricPrecision; image-rendering:optimizeQuality; fill-rule:evenodd; clip-rule:evenodd"
viewBox="0 0 16408.29 17349.22"
 xmlns:xlink="http://www.w3.org/1999/xlink"
 xmlns:xodm="http://www.corel.com/coreldraw/odm/2003">
 <defs>
  <style type="text/css">
   <![CDATA[
    .str0 {stroke:#373435;stroke-width:19.95;stroke-miterlimit:22.9256}
    .fil3 {fill:none}
    .fil0 {fill:#FEFEFE}
    .fil2 {fill:#373435}
    .fil4 {fill:#F7ADAF}
    .fil1 {fill:#ED3237}
   ]]>
  </style>
 </defs>
 <g id="Слой_x0020_1">
  <metadata id="CorelCorpID_0Corel-Layer"/>
  <path class="fil0" d="M11936.81 653.89l-11310.86 0 3.85 14642.82c81.9,806.27 682.81,1340.26 1485.52,1367.9l10310.1 0c17.84,0 -1.48,-34.69 -12.33,-50.91 -288.94,-431.59 -466.22,-862.95 -467.74,-1423.67l-4.19 -7469.66 616.54 0 0 -3627.35 -618.88 0 38.28 -159.96 -40.3 -3279.18z"/>
  <polygon class="fil1" points="16408.29,5845.79 14167.01,3667.07 14164.62,4766.28 11628.57,4764.81 11638.26,6083.36 11646.34,6886.22 14167.41,6885.43 14165.08,7950.04 "/>
  <path class="fil2" d="M12557.72 32.65l0 4060.38 -618.88 0 -2.03 -3439.14 -11310.86 -25.08 0 14561.23c0,811.02 663.63,1474.58 1474.58,1474.58l10324.9 0c79.95,0 -479.55,-523.76 -480.07,-1474.58l-4.19 -7469.66 616.54 0 0 6362.01 3278.32 48.35 7.54 1262.92c6.42,1075.48 -880.05,1955.56 -1955.56,1955.56l-11932.46 0c-1075.52,0 -1955.56,-880 -1955.56,-1955.56l0 -15393.67 12557.72 32.65zm0 14733.7l2628.22 0 0 602.32c0,895.06 -843.99,1312.17 -1277.36,1312.17 -617.66,-17.73 -1250.15,-371.41 -1350.86,-1312.17l0 -602.32z"/>
  <path class="fil3 str0" d="M12567.85 14765.26l2628.22 0 0 602.32c0,895.06 -843.99,1312.17 -1277.36,1312.17 -617.66,-17.73 -1250.15,-371.41 -1350.86,-1312.17l0 -602.32z"/>
  <path class="fil2" d="M1260.13 15903.49l10263.14 0 1.8 -6764.27 -1174.17 -805.29 4.82 -1679 -2333.81 8.72 -1666.87 -1222.87 -870.46 629.63 -850.35 591.62 -2255.43 7.17 13.05 1688.92 -1131.72 837.14 0 6708.24zm247.4 -472.82l0 -5803.92 4851.37 3512.74 4881.1 -3547.92 -1.31 5825.33 -3560.59 -2539.53 -248.08 192.05 3553.61 2551.13 -9218.57 0 3551.5 -2535.26 -295.79 -214.78 -3513.25 2560.15zm8855.09 -6740.84l-6.9 1175.58 876.35 -587.79 -869.45 -587.79zm-5307.57 -2034.91l1288.86 -907.68 1247.12 918.14 -2535.99 -10.46zm-2381.33 277.28l0 3178.99 3688.35 2618.27 3694.08 -2688.11 21.2 -3109.15 -7403.63 0zm-1114.92 2377.22l838.71 -629.13 -8.16 1227.01 -830.55 -597.88z"/>
  <path class="fil1" d="M3308.52 9936l6168.16 0 0 -2642.34 -6168.16 0 0 2642.34zm1029.24 -368.35l273.55 0 0 -682.79c45.19,9.1 97.52,11.38 154.61,11.38 328.25,0 680.29,-145.66 680.29,-569 0,-159.31 -61.85,-291.32 -164.14,-375.53 -109.41,-93.32 -278.3,-138.84 -501.89,-138.84 -187.9,0 -333.01,15.93 -442.43,34.14l0 1720.63zm273.55 -1531.71c35.68,-6.83 99.89,-15.93 185.53,-15.93 221.21,0 373.45,106.97 373.45,318.63 0,223.04 -152.24,348.22 -404.37,348.22 -64.23,0 -114.18,-2.27 -154.61,-13.66l0 -637.26zm1117.95 1527.17c102.29,13.66 233.11,20.48 394.86,20.48 321.11,0 580.38,-77.39 744.51,-229.87 159.37,-147.94 261.65,-377.81 261.65,-694.17l0 -2.27c0,-386.91 -161.76,-844.38 -937.18,-844.38 -171.26,0 -333.02,15.93 -463.84,36.42l0 1713.79zm275.92 -1522.62c47.58,-9.1 118.94,-18.21 214.07,-18.21 392.49,0 620.83,218.49 620.83,641.82 0,480.23 -247.38,710.09 -656.51,707.82 -64.23,0 -130.82,-2.27 -178.4,-9.1l0 -1322.33zm1684.07 1527.17l0 -764.72 623.2 0 0 -218.49 -623.2 0 0 -539.41 670.76 0 0 -220.76 -946.69 0 0 1743.38 275.92 0z"/>
  <polygon class="fil4" points="6343.91,5747.24 5055.05,6654.92 7591.04,6665.38 "/>
  <polygon class="fil4 str0" points="2389.35,9907.3 2397.51,8680.29 1558.8,9309.43 "/>
  <polygon class="fil4" points="2389.35,9907.3 2397.51,8680.29 1558.8,9309.43 "/>
  <path class="fil4" d="M9476.68 9936l-6168.16 0 0 -2642.34 6168.16 0 0 2642.34zm-6802.96 -3003.79l0 3178.99 3688.35 2618.27 3694.08 -2688.11 21.2 -3109.15 -7403.63 0z"/>
  <polygon class="fil4" points="10362.62,8689.83 10355.72,9865.41 11232.07,9277.62 "/>
  <polygon class="fil4" points="11240,9591.57 6358.9,13139.49 1507.53,9626.75 1507.53,15430.67 5020.78,12870.52 5316.57,13085.3 1765.07,15620.56 10983.64,15620.56 7430.03,13069.43 7678.11,12877.38 11238.7,15416.9 "/>
  <path class="fil0 str0" d="M15185.93 14766.35l-2618.08 0 0 601.23c100.7,940.76 733.2,1294.44 1350.86,1312.17 25.05,0 51.47,-1.4 79.02,-4.19 450.14,-50.84 1188.2,-469.88 1188.2,-1306.89l0 -602.32z"/>
 </g>
</svg>
