<?xml version="1.0" encoding="UTF-8"?>
<!DOCTYPE svg PUBLIC "-//W3C//DTD SVG 1.1//EN" "http://www.w3.org/Graphics/SVG/1.1/DTD/svg11.dtd">
<!-- Creator: CorelDRAW 2017 -->
<svg xmlns="http://www.w3.org/2000/svg" xml:space="preserve" width="240px" height="240px" version="1.1" style="shape-rendering:geometricPrecision; text-rendering:geometricPrecision; image-rendering:optimizeQuality; fill-rule:evenodd; clip-rule:evenodd"
viewBox="0 0 240 239.999"
 xmlns:xlink="http://www.w3.org/1999/xlink">
 <defs>
  <style type="text/css">
   <![CDATA[
    .fil0 {fill:#FEFEFE}
    .fil4 {fill:#1F1A17}
    .fil2 {fill:#838280}
    .fil1 {fill:#F8C301}
    .fil3 {fill:white}
   ]]>
  </style>
 </defs>
 <g id="Layer_x0020_1">
  <metadata id="CorelCorpID_0Corel-Layer"/>
  <g id="_940671712">
   <rect class="fil0" x="-0.001" width="239.999" height="239.998"/>
   <g>
    <rect class="fil1" x="27.908" y="27.907" width="184.184" height="184.184"/>
    <g>
     <path class="fil2" d="M142.788 118.635l9.344 9.499 0 34.115 8.502 0 0 -6.091 7.136 0 0 -6.405 -7.032 0 0 -9.441 6.62 0 0 -5.983 -6.935 0 0 -6.097 28.025 -27.808 -32.119 -31.91 -7.502 7.38 -7.079 6.964 -17.644 17.355 18.684 18.422zm2.258 -2.729l-16.428 -16.112 15.265 -14.347 6.782 -6.374 5.875 -5.521 26.766 26.872 -26.977 26.977 -11.283 -11.495z"/>
     <path class="fil3" d="M93.959 121.943l-6.088 6.191 0 34.115 -8.502 0 0 -6.091 -7.139 0 0 -6.405 7.035 0 0 -9.441 -6.622 0 0 -5.983 6.936 0 0 -6.097 -28.027 -27.808 32.119 -31.91 32.225 31.699 -15.429 15.116c-0.815,-0.798 -1.532,-1.689 -2.099,-2.73l13.016 -12.805 -27.921 -26.242 -26.767 26.872 26.975 26.977 7.874 -8.189c0.75,0.967 1.546,1.886 2.414,2.731z"/>
     <polygon class="fil1" points="142.068,80.992 144.923,85.319 150.61,80.158 147.331,75.385 "/>
     <path class="fil4" d="M88.321 107.995c2.039,6.569 5.748,12.059 11.477,16.248 4.302,3.173 9.617,5.453 16.156,6.643l0 43.471 8.503 0 0 -5.797 7.136 0 0 -8.092 -7.032 0 0 -8.552 6.619 0 0 -7.838 -6.934 0 0 -13.095c7.49,-1.341 13.961,-4.298 19.205,-9.207l-3.055 -3.076c-6.861,5.51 -14.439,8.268 -22.886,7.699 -10.591,-1.589 -18.615,-6.89 -23.54,-16.671 -3.266,-7.394 -3.698,-15.242 -0.371,-23.695l-3.217 -3.2c-4.453,8.031 -4.595,16.469 -2.061,25.162zm53.917 -28.852c1.654,2.02 3.093,4.185 4.384,6.45 4.308,9.066 3.492,18.079 -1.574,27.048l3.419 3.411c6.926,-10.984 7.566,-22.27 1.403,-33.878l-0.009 0.009c-1.111,-2.105 -2.469,-4.069 -4.039,-5.918l0.01 -0.01 -0.192 -0.205 -0.002 -0.001 -0.016 -0.019 -0.15 -0.176 -0.008 0.008c-3.974,-4.246 -8.938,-7.378 -14.897,-9.387 -5.854,-1.703 -11.768,-2.031 -17.752,-0.693 -6.891,1.639 -12.841,5.296 -18.017,10.631l3.336 3.284c3.032,-3.568 6.944,-6.702 12.068,-8.527 5.725,-2.038 11.844,-2.475 17.676,-0.879 5.622,1.54 10.402,4.654 14.36,8.852z"/>
    </g>
   </g>
  </g>
 </g>
</svg>
